<svg xmlns="http://www.w3.org/2000/svg" viewBox="0 0 1200 760"><defs><linearGradient id="bg" x1="0" y1="0" x2="0" y2="1"><stop offset="0" stop-color="#0d1f1a"/><stop offset="1" stop-color="#143229"/></linearGradient><radialGradient id="ga" cx="0.5" cy="0.5" r="0.5"><stop offset="0" stop-color="#34d399" stop-opacity="0.55"/><stop offset="1" stop-color="#34d399" stop-opacity="0"/></radialGradient><radialGradient id="gb" cx="0.5" cy="0.5" r="0.5"><stop offset="0" stop-color="#fbbf24" stop-opacity="0.4"/><stop offset="1" stop-color="#fbbf24" stop-opacity="0"/></radialGradient></defs><rect width="1200" height="760" fill="url(#bg)"/><g fill="#6ee7b7" opacity="0.18"><circle cx="60" cy="60" r="1.6"/><circle cx="116" cy="60" r="1.6"/><circle cx="172" cy="60" r="1.6"/><circle cx="228" cy="60" r="1.6"/><circle cx="284" cy="60" r="1.6"/><circle cx="340" cy="60" r="1.6"/><circle cx="396" cy="60" r="1.6"/><circle cx="452" cy="60" r="1.6"/><circle cx="508" cy="60" r="1.6"/><circle cx="564" cy="60" r="1.6"/><circle cx="620" cy="60" r="1.6"/><circle cx="676" cy="60" r="1.6"/><circle cx="732" cy="60" r="1.6"/><circle cx="788" cy="60" r="1.6"/><circle cx="844" cy="60" r="1.6"/><circle cx="900" cy="60" r="1.6"/><circle cx="956" cy="60" r="1.6"/><circle cx="1012" cy="60" r="1.6"/><circle cx="1068" cy="60" r="1.6"/><circle cx="1124" cy="60" r="1.6"/><circle cx="1180" cy="60" r="1.6"/><circle cx="60" cy="116" r="1.6"/><circle cx="116" cy="116" r="1.6"/><circle cx="172" cy="116" r="1.6"/><circle cx="228" cy="116" r="1.6"/><circle cx="284" cy="116" r="1.6"/><circle cx="340" cy="116" r="1.6"/><circle cx="396" cy="116" r="1.6"/><circle cx="452" cy="116" r="1.6"/><circle cx="508" cy="116" r="1.6"/><circle cx="564" cy="116" r="1.6"/><circle cx="620" cy="116" r="1.6"/><circle cx="676" cy="116" r="1.6"/><circle cx="732" cy="116" r="1.6"/><circle cx="788" cy="116" r="1.6"/><circle cx="844" cy="116" r="1.6"/><circle cx="900" cy="116" r="1.6"/><circle cx="956" cy="116" r="1.6"/><circle cx="1012" cy="116" r="1.6"/><circle cx="1068" cy="116" r="1.6"/><circle cx="1124" cy="116" r="1.6"/><circle cx="1180" cy="116" r="1.6"/><circle cx="60" cy="172" r="1.6"/><circle cx="116" cy="172" r="1.6"/><circle cx="172" cy="172" r="1.6"/><circle cx="228" cy="172" r="1.6"/><circle cx="284" cy="172" r="1.6"/><circle cx="340" cy="172" r="1.6"/><circle cx="396" cy="172" r="1.6"/><circle cx="452" cy="172" r="1.6"/><circle cx="508" cy="172" r="1.6"/><circle cx="564" cy="172" r="1.6"/><circle cx="620" cy="172" r="1.6"/><circle cx="676" cy="172" r="1.6"/><circle cx="732" cy="172" r="1.6"/><circle cx="788" cy="172" r="1.6"/><circle cx="844" cy="172" r="1.6"/><circle cx="900" cy="172" r="1.6"/><circle cx="956" cy="172" r="1.6"/><circle cx="1012" cy="172" r="1.6"/><circle cx="1068" cy="172" r="1.6"/><circle cx="1124" cy="172" r="1.6"/><circle cx="1180" cy="172" r="1.6"/><circle cx="60" cy="228" r="1.6"/><circle cx="116" cy="228" r="1.6"/><circle cx="172" cy="228" r="1.6"/><circle cx="228" cy="228" r="1.6"/><circle cx="284" cy="228" r="1.6"/><circle cx="340" cy="228" r="1.6"/><circle cx="396" cy="228" r="1.6"/><circle cx="452" cy="228" r="1.6"/><circle cx="508" cy="228" r="1.6"/><circle cx="564" cy="228" r="1.6"/><circle cx="620" cy="228" r="1.6"/><circle cx="676" cy="228" r="1.6"/><circle cx="732" cy="228" r="1.6"/><circle cx="788" cy="228" r="1.6"/><circle cx="844" cy="228" r="1.6"/><circle cx="900" cy="228" r="1.6"/><circle cx="956" cy="228" r="1.6"/><circle cx="1012" cy="228" r="1.6"/><circle cx="1068" cy="228" r="1.6"/><circle cx="1124" cy="228" r="1.6"/><circle cx="1180" cy="228" r="1.6"/><circle cx="60" cy="284" r="1.6"/><circle cx="116" cy="284" r="1.6"/><circle cx="172" cy="284" r="1.6"/><circle cx="228" cy="284" r="1.6"/><circle cx="284" cy="284" r="1.6"/><circle cx="340" cy="284" r="1.6"/><circle cx="396" cy="284" r="1.6"/><circle cx="452" cy="284" r="1.6"/><circle cx="508" cy="284" r="1.6"/><circle cx="564" cy="284" r="1.6"/><circle cx="620" cy="284" r="1.6"/><circle cx="676" cy="284" r="1.6"/><circle cx="732" cy="284" r="1.6"/><circle cx="788" cy="284" r="1.6"/><circle cx="844" cy="284" r="1.6"/><circle cx="900" cy="284" r="1.6"/><circle cx="956" cy="284" r="1.6"/><circle cx="1012" cy="284" r="1.6"/><circle cx="1068" cy="284" r="1.6"/><circle cx="1124" cy="284" r="1.6"/><circle cx="1180" cy="284" r="1.6"/><circle cx="60" cy="340" r="1.6"/><circle cx="116" cy="340" r="1.6"/><circle cx="172" cy="340" r="1.6"/><circle cx="228" cy="340" r="1.6"/><circle cx="284" cy="340" r="1.6"/><circle cx="340" cy="340" r="1.6"/><circle cx="396" cy="340" r="1.6"/><circle cx="452" cy="340" r="1.6"/><circle cx="508" cy="340" r="1.6"/><circle cx="564" cy="340" r="1.6"/><circle cx="620" cy="340" r="1.6"/><circle cx="676" cy="340" r="1.6"/><circle cx="732" cy="340" r="1.6"/><circle cx="788" cy="340" r="1.6"/><circle cx="844" cy="340" r="1.6"/><circle cx="900" cy="340" r="1.6"/><circle cx="956" cy="340" r="1.6"/><circle cx="1012" cy="340" r="1.6"/><circle cx="1068" cy="340" r="1.6"/><circle cx="1124" cy="340" r="1.6"/><circle cx="1180" cy="340" r="1.6"/><circle cx="60" cy="396" r="1.6"/><circle cx="116" cy="396" r="1.6"/><circle cx="172" cy="396" r="1.6"/><circle cx="228" cy="396" r="1.6"/><circle cx="284" cy="396" r="1.6"/><circle cx="340" cy="396" r="1.6"/><circle cx="396" cy="396" r="1.6"/><circle cx="452" cy="396" r="1.6"/><circle cx="508" cy="396" r="1.6"/><circle cx="564" cy="396" r="1.6"/><circle cx="620" cy="396" r="1.6"/><circle cx="676" cy="396" r="1.6"/><circle cx="732" cy="396" r="1.6"/><circle cx="788" cy="396" r="1.6"/><circle cx="844" cy="396" r="1.6"/><circle cx="900" cy="396" r="1.6"/><circle cx="956" cy="396" r="1.6"/><circle cx="1012" cy="396" r="1.6"/><circle cx="1068" cy="396" r="1.6"/><circle cx="1124" cy="396" r="1.6"/><circle cx="1180" cy="396" r="1.6"/><circle cx="60" cy="452" r="1.6"/><circle cx="116" cy="452" r="1.6"/><circle cx="172" cy="452" r="1.6"/><circle cx="228" cy="452" r="1.6"/><circle cx="284" cy="452" r="1.6"/><circle cx="340" cy="452" r="1.6"/><circle cx="396" cy="452" r="1.6"/><circle cx="452" cy="452" r="1.6"/><circle cx="508" cy="452" r="1.6"/><circle cx="564" cy="452" r="1.6"/><circle cx="620" cy="452" r="1.6"/><circle cx="676" cy="452" r="1.6"/><circle cx="732" cy="452" r="1.6"/><circle cx="788" cy="452" r="1.6"/><circle cx="844" cy="452" r="1.6"/><circle cx="900" cy="452" r="1.6"/><circle cx="956" cy="452" r="1.6"/><circle cx="1012" cy="452" r="1.6"/><circle cx="1068" cy="452" r="1.6"/><circle cx="1124" cy="452" r="1.6"/><circle cx="1180" cy="452" r="1.6"/><circle cx="60" cy="508" r="1.6"/><circle cx="116" cy="508" r="1.6"/><circle cx="172" cy="508" r="1.6"/><circle cx="228" cy="508" r="1.6"/><circle cx="284" cy="508" r="1.6"/><circle cx="340" cy="508" r="1.6"/><circle cx="396" cy="508" r="1.6"/><circle cx="452" cy="508" r="1.6"/><circle cx="508" cy="508" r="1.6"/><circle cx="564" cy="508" r="1.6"/><circle cx="620" cy="508" r="1.6"/><circle cx="676" cy="508" r="1.6"/><circle cx="732" cy="508" r="1.6"/><circle cx="788" cy="508" r="1.6"/><circle cx="844" cy="508" r="1.6"/><circle cx="900" cy="508" r="1.6"/><circle cx="956" cy="508" r="1.6"/><circle cx="1012" cy="508" r="1.6"/><circle cx="1068" cy="508" r="1.6"/><circle cx="1124" cy="508" r="1.6"/><circle cx="1180" cy="508" r="1.6"/><circle cx="60" cy="564" r="1.6"/><circle cx="116" cy="564" r="1.6"/><circle cx="172" cy="564" r="1.6"/><circle cx="228" cy="564" r="1.6"/><circle cx="284" cy="564" r="1.6"/><circle cx="340" cy="564" r="1.6"/><circle cx="396" cy="564" r="1.6"/><circle cx="452" cy="564" r="1.6"/><circle cx="508" cy="564" r="1.6"/><circle cx="564" cy="564" r="1.6"/><circle cx="620" cy="564" r="1.6"/><circle cx="676" cy="564" r="1.6"/><circle cx="732" cy="564" r="1.6"/><circle cx="788" cy="564" r="1.6"/><circle cx="844" cy="564" r="1.6"/><circle cx="900" cy="564" r="1.6"/><circle cx="956" cy="564" r="1.6"/><circle cx="1012" cy="564" r="1.6"/><circle cx="1068" cy="564" r="1.6"/><circle cx="1124" cy="564" r="1.6"/><circle cx="1180" cy="564" r="1.6"/><circle cx="60" cy="620" r="1.6"/><circle cx="116" cy="620" r="1.6"/><circle cx="172" cy="620" r="1.6"/><circle cx="228" cy="620" r="1.6"/><circle cx="284" cy="620" r="1.6"/><circle cx="340" cy="620" r="1.6"/><circle cx="396" cy="620" r="1.6"/><circle cx="452" cy="620" r="1.6"/><circle cx="508" cy="620" r="1.6"/><circle cx="564" cy="620" r="1.6"/><circle cx="620" cy="620" r="1.6"/><circle cx="676" cy="620" r="1.6"/><circle cx="732" cy="620" r="1.6"/><circle cx="788" cy="620" r="1.6"/><circle cx="844" cy="620" r="1.6"/><circle cx="900" cy="620" r="1.6"/><circle cx="956" cy="620" r="1.6"/><circle cx="1012" cy="620" r="1.6"/><circle cx="1068" cy="620" r="1.6"/><circle cx="1124" cy="620" r="1.6"/><circle cx="1180" cy="620" r="1.6"/><circle cx="60" cy="676" r="1.6"/><circle cx="116" cy="676" r="1.6"/><circle cx="172" cy="676" r="1.6"/><circle cx="228" cy="676" r="1.6"/><circle cx="284" cy="676" r="1.6"/><circle cx="340" cy="676" r="1.6"/><circle cx="396" cy="676" r="1.6"/><circle cx="452" cy="676" r="1.6"/><circle cx="508" cy="676" r="1.6"/><circle cx="564" cy="676" r="1.6"/><circle cx="620" cy="676" r="1.6"/><circle cx="676" cy="676" r="1.6"/><circle cx="732" cy="676" r="1.6"/><circle cx="788" cy="676" r="1.6"/><circle cx="844" cy="676" r="1.6"/><circle cx="900" cy="676" r="1.6"/><circle cx="956" cy="676" r="1.6"/><circle cx="1012" cy="676" r="1.6"/><circle cx="1068" cy="676" r="1.6"/><circle cx="1124" cy="676" r="1.6"/><circle cx="1180" cy="676" r="1.6"/><circle cx="60" cy="732" r="1.6"/><circle cx="116" cy="732" r="1.6"/><circle cx="172" cy="732" r="1.6"/><circle cx="228" cy="732" r="1.6"/><circle cx="284" cy="732" r="1.6"/><circle cx="340" cy="732" r="1.6"/><circle cx="396" cy="732" r="1.6"/><circle cx="452" cy="732" r="1.6"/><circle cx="508" cy="732" r="1.6"/><circle cx="564" cy="732" r="1.6"/><circle cx="620" cy="732" r="1.6"/><circle cx="676" cy="732" r="1.6"/><circle cx="732" cy="732" r="1.6"/><circle cx="788" cy="732" r="1.6"/><circle cx="844" cy="732" r="1.6"/><circle cx="900" cy="732" r="1.6"/><circle cx="956" cy="732" r="1.6"/><circle cx="1012" cy="732" r="1.6"/><circle cx="1068" cy="732" r="1.6"/><circle cx="1124" cy="732" r="1.6"/><circle cx="1180" cy="732" r="1.6"/></g><circle cx="731" cy="409" r="356" fill="url(#ga)"/><circle cx="404" cy="223" r="246" fill="url(#gb)"/><path d="M-50 509 C 300 390, 600 628, 1250 450" fill="none" stroke="#6ee7b7" stroke-width="2.5" opacity="0.25"/><path d="M-50 343 C 300 278, 600 408, 1250 311" fill="none" stroke="#6ee7b7" stroke-width="1.9" opacity="0.19"/><path d="M-50 463 C 300 318, 600 608, 1250 391" fill="none" stroke="#6ee7b7" stroke-width="1.3" opacity="0.13"/><rect x="254" y="362" width="94" height="94" rx="18" fill="#ffffff" opacity="0.07" transform="rotate(2 301.0 409.0)"/><rect x="417" y="378" width="89" height="89" rx="17" fill="#ffffff" opacity="0.12" transform="rotate(12 461.5 422.5)"/><rect x="862" y="358" width="101" height="101" rx="20" fill="#ffffff" opacity="0.12" transform="rotate(-4 912.5 408.5)"/><rect x="166" y="330" width="112" height="112" rx="22" fill="#ffffff" opacity="0.08" transform="rotate(-9 222.0 386.0)"/><g transform="translate(515 295)"><rect width="170" height="170" rx="36" fill="#ffffff" opacity="0.08"/><rect width="170" height="170" rx="36" fill="none" stroke="#ffffff" stroke-opacity="0.25" stroke-width="1.5"/><g transform="translate(53 53)"><path d="M12 12h40v40H12zM12 28h40M28 12v40" fill="none" stroke="#ffffff" stroke-opacity="0.9" stroke-width="3.5" stroke-linecap="round" stroke-linejoin="round"/></g></g></svg>