<svg xmlns="http://www.w3.org/2000/svg" viewBox="0 0 1200 760"><defs><linearGradient id="bg" x1="0" y1="0" x2="0" y2="1"><stop offset="0" stop-color="#0b1026"/><stop offset="1" stop-color="#161b3c"/></linearGradient><radialGradient id="ga" cx="0.5" cy="0.5" r="0.5"><stop offset="0" stop-color="#6366f1" stop-opacity="0.55"/><stop offset="1" stop-color="#6366f1" stop-opacity="0"/></radialGradient><radialGradient id="gb" cx="0.5" cy="0.5" r="0.5"><stop offset="0" stop-color="#22d3ee" stop-opacity="0.4"/><stop offset="1" stop-color="#22d3ee" stop-opacity="0"/></radialGradient></defs><rect width="1200" height="760" fill="url(#bg)"/><g fill="#818cf8" opacity="0.18"><circle cx="60" cy="60" r="1.6"/><circle cx="116" cy="60" r="1.6"/><circle cx="172" cy="60" r="1.6"/><circle cx="228" cy="60" r="1.6"/><circle cx="284" cy="60" r="1.6"/><circle cx="340" cy="60" r="1.6"/><circle cx="396" cy="60" r="1.6"/><circle cx="452" cy="60" r="1.6"/><circle cx="508" cy="60" r="1.6"/><circle cx="564" cy="60" r="1.6"/><circle cx="620" cy="60" r="1.6"/><circle cx="676" cy="60" r="1.6"/><circle cx="732" cy="60" r="1.6"/><circle cx="788" cy="60" r="1.6"/><circle cx="844" cy="60" r="1.6"/><circle cx="900" cy="60" r="1.6"/><circle cx="956" cy="60" r="1.6"/><circle cx="1012" cy="60" r="1.6"/><circle cx="1068" cy="60" r="1.6"/><circle cx="1124" cy="60" r="1.6"/><circle cx="1180" cy="60" r="1.6"/><circle cx="60" cy="116" r="1.6"/><circle cx="116" cy="116" r="1.6"/><circle cx="172" cy="116" r="1.6"/><circle cx="228" cy="116" r="1.6"/><circle cx="284" cy="116" r="1.6"/><circle cx="340" cy="116" r="1.6"/><circle cx="396" cy="116" r="1.6"/><circle cx="452" cy="116" r="1.6"/><circle cx="508" cy="116" r="1.6"/><circle cx="564" cy="116" r="1.6"/><circle cx="620" cy="116" r="1.6"/><circle cx="676" cy="116" r="1.6"/><circle cx="732" cy="116" r="1.6"/><circle cx="788" cy="116" r="1.6"/><circle cx="844" cy="116" r="1.6"/><circle cx="900" cy="116" r="1.6"/><circle cx="956" cy="116" r="1.6"/><circle cx="1012" cy="116" r="1.6"/><circle cx="1068" cy="116" r="1.6"/><circle cx="1124" cy="116" r="1.6"/><circle cx="1180" cy="116" r="1.6"/><circle cx="60" cy="172" r="1.6"/><circle cx="116" cy="172" r="1.6"/><circle cx="172" cy="172" r="1.6"/><circle cx="228" cy="172" r="1.6"/><circle cx="284" cy="172" r="1.6"/><circle cx="340" cy="172" r="1.6"/><circle cx="396" cy="172" r="1.6"/><circle cx="452" cy="172" r="1.6"/><circle cx="508" cy="172" r="1.6"/><circle cx="564" cy="172" r="1.6"/><circle cx="620" cy="172" r="1.6"/><circle cx="676" cy="172" r="1.6"/><circle cx="732" cy="172" r="1.6"/><circle cx="788" cy="172" r="1.6"/><circle cx="844" cy="172" r="1.6"/><circle cx="900" cy="172" r="1.6"/><circle cx="956" cy="172" r="1.6"/><circle cx="1012" cy="172" r="1.6"/><circle cx="1068" cy="172" r="1.6"/><circle cx="1124" cy="172" r="1.6"/><circle cx="1180" cy="172" r="1.6"/><circle cx="60" cy="228" r="1.6"/><circle cx="116" cy="228" r="1.6"/><circle cx="172" cy="228" r="1.6"/><circle cx="228" cy="228" r="1.6"/><circle cx="284" cy="228" r="1.6"/><circle cx="340" cy="228" r="1.6"/><circle cx="396" cy="228" r="1.6"/><circle cx="452" cy="228" r="1.6"/><circle cx="508" cy="228" r="1.6"/><circle cx="564" cy="228" r="1.6"/><circle cx="620" cy="228" r="1.6"/><circle cx="676" cy="228" r="1.6"/><circle cx="732" cy="228" r="1.6"/><circle cx="788" cy="228" r="1.6"/><circle cx="844" cy="228" r="1.6"/><circle cx="900" cy="228" r="1.6"/><circle cx="956" cy="228" r="1.6"/><circle cx="1012" cy="228" r="1.6"/><circle cx="1068" cy="228" r="1.6"/><circle cx="1124" cy="228" r="1.6"/><circle cx="1180" cy="228" r="1.6"/><circle cx="60" cy="284" r="1.6"/><circle cx="116" cy="284" r="1.6"/><circle cx="172" cy="284" r="1.6"/><circle cx="228" cy="284" r="1.6"/><circle cx="284" cy="284" r="1.6"/><circle cx="340" cy="284" r="1.6"/><circle cx="396" cy="284" r="1.6"/><circle cx="452" cy="284" r="1.6"/><circle cx="508" cy="284" r="1.6"/><circle cx="564" cy="284" r="1.6"/><circle cx="620" cy="284" r="1.6"/><circle cx="676" cy="284" r="1.6"/><circle cx="732" cy="284" r="1.6"/><circle cx="788" cy="284" r="1.6"/><circle cx="844" cy="284" r="1.6"/><circle cx="900" cy="284" r="1.6"/><circle cx="956" cy="284" r="1.6"/><circle cx="1012" cy="284" r="1.6"/><circle cx="1068" cy="284" r="1.6"/><circle cx="1124" cy="284" r="1.6"/><circle cx="1180" cy="284" r="1.6"/><circle cx="60" cy="340" r="1.6"/><circle cx="116" cy="340" r="1.6"/><circle cx="172" cy="340" r="1.6"/><circle cx="228" cy="340" r="1.6"/><circle cx="284" cy="340" r="1.6"/><circle cx="340" cy="340" r="1.6"/><circle cx="396" cy="340" r="1.6"/><circle cx="452" cy="340" r="1.6"/><circle cx="508" cy="340" r="1.6"/><circle cx="564" cy="340" r="1.6"/><circle cx="620" cy="340" r="1.6"/><circle cx="676" cy="340" r="1.6"/><circle cx="732" cy="340" r="1.6"/><circle cx="788" cy="340" r="1.6"/><circle cx="844" cy="340" r="1.6"/><circle cx="900" cy="340" r="1.6"/><circle cx="956" cy="340" r="1.6"/><circle cx="1012" cy="340" r="1.6"/><circle cx="1068" cy="340" r="1.6"/><circle cx="1124" cy="340" r="1.6"/><circle cx="1180" cy="340" r="1.6"/><circle cx="60" cy="396" r="1.6"/><circle cx="116" cy="396" r="1.6"/><circle cx="172" cy="396" r="1.6"/><circle cx="228" cy="396" r="1.6"/><circle cx="284" cy="396" r="1.6"/><circle cx="340" cy="396" r="1.6"/><circle cx="396" cy="396" r="1.6"/><circle cx="452" cy="396" r="1.6"/><circle cx="508" cy="396" r="1.6"/><circle cx="564" cy="396" r="1.6"/><circle cx="620" cy="396" r="1.6"/><circle cx="676" cy="396" r="1.6"/><circle cx="732" cy="396" r="1.6"/><circle cx="788" cy="396" r="1.6"/><circle cx="844" cy="396" r="1.6"/><circle cx="900" cy="396" r="1.6"/><circle cx="956" cy="396" r="1.6"/><circle cx="1012" cy="396" r="1.6"/><circle cx="1068" cy="396" r="1.6"/><circle cx="1124" cy="396" r="1.6"/><circle cx="1180" cy="396" r="1.6"/><circle cx="60" cy="452" r="1.6"/><circle cx="116" cy="452" r="1.6"/><circle cx="172" cy="452" r="1.6"/><circle cx="228" cy="452" r="1.6"/><circle cx="284" cy="452" r="1.6"/><circle cx="340" cy="452" r="1.6"/><circle cx="396" cy="452" r="1.6"/><circle cx="452" cy="452" r="1.6"/><circle cx="508" cy="452" r="1.6"/><circle cx="564" cy="452" r="1.6"/><circle cx="620" cy="452" r="1.6"/><circle cx="676" cy="452" r="1.6"/><circle cx="732" cy="452" r="1.6"/><circle cx="788" cy="452" r="1.6"/><circle cx="844" cy="452" r="1.6"/><circle cx="900" cy="452" r="1.6"/><circle cx="956" cy="452" r="1.6"/><circle cx="1012" cy="452" r="1.6"/><circle cx="1068" cy="452" r="1.6"/><circle cx="1124" cy="452" r="1.6"/><circle cx="1180" cy="452" r="1.6"/><circle cx="60" cy="508" r="1.6"/><circle cx="116" cy="508" r="1.6"/><circle cx="172" cy="508" r="1.6"/><circle cx="228" cy="508" r="1.6"/><circle cx="284" cy="508" r="1.6"/><circle cx="340" cy="508" r="1.6"/><circle cx="396" cy="508" r="1.6"/><circle cx="452" cy="508" r="1.6"/><circle cx="508" cy="508" r="1.6"/><circle cx="564" cy="508" r="1.6"/><circle cx="620" cy="508" r="1.6"/><circle cx="676" cy="508" r="1.6"/><circle cx="732" cy="508" r="1.6"/><circle cx="788" cy="508" r="1.6"/><circle cx="844" cy="508" r="1.6"/><circle cx="900" cy="508" r="1.6"/><circle cx="956" cy="508" r="1.6"/><circle cx="1012" cy="508" r="1.6"/><circle cx="1068" cy="508" r="1.6"/><circle cx="1124" cy="508" r="1.6"/><circle cx="1180" cy="508" r="1.6"/><circle cx="60" cy="564" r="1.6"/><circle cx="116" cy="564" r="1.6"/><circle cx="172" cy="564" r="1.6"/><circle cx="228" cy="564" r="1.6"/><circle cx="284" cy="564" r="1.6"/><circle cx="340" cy="564" r="1.6"/><circle cx="396" cy="564" r="1.6"/><circle cx="452" cy="564" r="1.6"/><circle cx="508" cy="564" r="1.6"/><circle cx="564" cy="564" r="1.6"/><circle cx="620" cy="564" r="1.6"/><circle cx="676" cy="564" r="1.6"/><circle cx="732" cy="564" r="1.6"/><circle cx="788" cy="564" r="1.6"/><circle cx="844" cy="564" r="1.6"/><circle cx="900" cy="564" r="1.6"/><circle cx="956" cy="564" r="1.6"/><circle cx="1012" cy="564" r="1.6"/><circle cx="1068" cy="564" r="1.6"/><circle cx="1124" cy="564" r="1.6"/><circle cx="1180" cy="564" r="1.6"/><circle cx="60" cy="620" r="1.6"/><circle cx="116" cy="620" r="1.6"/><circle cx="172" cy="620" r="1.6"/><circle cx="228" cy="620" r="1.6"/><circle cx="284" cy="620" r="1.6"/><circle cx="340" cy="620" r="1.6"/><circle cx="396" cy="620" r="1.6"/><circle cx="452" cy="620" r="1.6"/><circle cx="508" cy="620" r="1.6"/><circle cx="564" cy="620" r="1.6"/><circle cx="620" cy="620" r="1.6"/><circle cx="676" cy="620" r="1.6"/><circle cx="732" cy="620" r="1.6"/><circle cx="788" cy="620" r="1.6"/><circle cx="844" cy="620" r="1.6"/><circle cx="900" cy="620" r="1.6"/><circle cx="956" cy="620" r="1.6"/><circle cx="1012" cy="620" r="1.6"/><circle cx="1068" cy="620" r="1.6"/><circle cx="1124" cy="620" r="1.6"/><circle cx="1180" cy="620" r="1.6"/><circle cx="60" cy="676" r="1.6"/><circle cx="116" cy="676" r="1.6"/><circle cx="172" cy="676" r="1.6"/><circle cx="228" cy="676" r="1.6"/><circle cx="284" cy="676" r="1.6"/><circle cx="340" cy="676" r="1.6"/><circle cx="396" cy="676" r="1.6"/><circle cx="452" cy="676" r="1.6"/><circle cx="508" cy="676" r="1.6"/><circle cx="564" cy="676" r="1.6"/><circle cx="620" cy="676" r="1.6"/><circle cx="676" cy="676" r="1.6"/><circle cx="732" cy="676" r="1.6"/><circle cx="788" cy="676" r="1.6"/><circle cx="844" cy="676" r="1.6"/><circle cx="900" cy="676" r="1.6"/><circle cx="956" cy="676" r="1.6"/><circle cx="1012" cy="676" r="1.6"/><circle cx="1068" cy="676" r="1.6"/><circle cx="1124" cy="676" r="1.6"/><circle cx="1180" cy="676" r="1.6"/><circle cx="60" cy="732" r="1.6"/><circle cx="116" cy="732" r="1.6"/><circle cx="172" cy="732" r="1.6"/><circle cx="228" cy="732" r="1.6"/><circle cx="284" cy="732" r="1.6"/><circle cx="340" cy="732" r="1.6"/><circle cx="396" cy="732" r="1.6"/><circle cx="452" cy="732" r="1.6"/><circle cx="508" cy="732" r="1.6"/><circle cx="564" cy="732" r="1.6"/><circle cx="620" cy="732" r="1.6"/><circle cx="676" cy="732" r="1.6"/><circle cx="732" cy="732" r="1.6"/><circle cx="788" cy="732" r="1.6"/><circle cx="844" cy="732" r="1.6"/><circle cx="900" cy="732" r="1.6"/><circle cx="956" cy="732" r="1.6"/><circle cx="1012" cy="732" r="1.6"/><circle cx="1068" cy="732" r="1.6"/><circle cx="1124" cy="732" r="1.6"/><circle cx="1180" cy="732" r="1.6"/></g><circle cx="543" cy="493" r="329" fill="url(#ga)"/><circle cx="433" cy="379" r="317" fill="url(#gb)"/><path d="M-50 461 C 300 341, 600 581, 1250 401" fill="none" stroke="#818cf8" stroke-width="2.5" opacity="0.25"/><path d="M-50 472 C 300 338, 600 606, 1250 405" fill="none" stroke="#818cf8" stroke-width="1.9" opacity="0.19"/><path d="M-50 185 C 300 48, 600 322, 1250 117" fill="none" stroke="#818cf8" stroke-width="1.3" opacity="0.13"/><rect x="93" y="525" width="110" height="110" rx="22" fill="#ffffff" opacity="0.09" transform="rotate(-2 148.0 580.0)"/><rect x="276" y="427" width="110" height="110" rx="22" fill="#ffffff" opacity="0.11" transform="rotate(16 331.0 482.0)"/><rect x="567" y="263" width="69" height="69" rx="13" fill="#ffffff" opacity="0.09" transform="rotate(-4 601.5 297.5)"/><rect x="968" y="534" width="116" height="116" rx="23" fill="#ffffff" opacity="0.10" transform="rotate(6 1026.0 592.0)"/><g transform="translate(515 295)"><rect width="170" height="170" rx="36" fill="#ffffff" opacity="0.08"/><rect width="170" height="170" rx="36" fill="none" stroke="#ffffff" stroke-opacity="0.25" stroke-width="1.5"/><g transform="translate(53 53)"><path d="M14 6h26v10h10l8 10v12h-6a7 7 0 0 1-14 0H28a7 7 0 0 1-14 0h-4V6z" fill="none" stroke="#ffffff" stroke-opacity="0.9" stroke-width="3.5" stroke-linecap="round" stroke-linejoin="round"/></g></g></svg>