<svg xmlns="http://www.w3.org/2000/svg" viewBox="0 0 1200 760"><defs><linearGradient id="bg" x1="0" y1="0" x2="0" y2="1"><stop offset="0" stop-color="#0c1a2e"/><stop offset="1" stop-color="#12294a"/></linearGradient><radialGradient id="ga" cx="0.5" cy="0.5" r="0.5"><stop offset="0" stop-color="#38bdf8" stop-opacity="0.55"/><stop offset="1" stop-color="#38bdf8" stop-opacity="0"/></radialGradient><radialGradient id="gb" cx="0.5" cy="0.5" r="0.5"><stop offset="0" stop-color="#818cf8" stop-opacity="0.4"/><stop offset="1" stop-color="#818cf8" stop-opacity="0"/></radialGradient></defs><rect width="1200" height="760" fill="url(#bg)"/><g fill="#7dd3fc" opacity="0.18"><circle cx="60" cy="60" r="1.6"/><circle cx="116" cy="60" r="1.6"/><circle cx="172" cy="60" r="1.6"/><circle cx="228" cy="60" r="1.6"/><circle cx="284" cy="60" r="1.6"/><circle cx="340" cy="60" r="1.6"/><circle cx="396" cy="60" r="1.6"/><circle cx="452" cy="60" r="1.6"/><circle cx="508" cy="60" r="1.6"/><circle cx="564" cy="60" r="1.6"/><circle cx="620" cy="60" r="1.6"/><circle cx="676" cy="60" r="1.6"/><circle cx="732" cy="60" r="1.6"/><circle cx="788" cy="60" r="1.6"/><circle cx="844" cy="60" r="1.6"/><circle cx="900" cy="60" r="1.6"/><circle cx="956" cy="60" r="1.6"/><circle cx="1012" cy="60" r="1.6"/><circle cx="1068" cy="60" r="1.6"/><circle cx="1124" cy="60" r="1.6"/><circle cx="1180" cy="60" r="1.6"/><circle cx="60" cy="116" r="1.6"/><circle cx="116" cy="116" r="1.6"/><circle cx="172" cy="116" r="1.6"/><circle cx="228" cy="116" r="1.6"/><circle cx="284" cy="116" r="1.6"/><circle cx="340" cy="116" r="1.6"/><circle cx="396" cy="116" r="1.6"/><circle cx="452" cy="116" r="1.6"/><circle cx="508" cy="116" r="1.6"/><circle cx="564" cy="116" r="1.6"/><circle cx="620" cy="116" r="1.6"/><circle cx="676" cy="116" r="1.6"/><circle cx="732" cy="116" r="1.6"/><circle cx="788" cy="116" r="1.6"/><circle cx="844" cy="116" r="1.6"/><circle cx="900" cy="116" r="1.6"/><circle cx="956" cy="116" r="1.6"/><circle cx="1012" cy="116" r="1.6"/><circle cx="1068" cy="116" r="1.6"/><circle cx="1124" cy="116" r="1.6"/><circle cx="1180" cy="116" r="1.6"/><circle cx="60" cy="172" r="1.6"/><circle cx="116" cy="172" r="1.6"/><circle cx="172" cy="172" r="1.6"/><circle cx="228" cy="172" r="1.6"/><circle cx="284" cy="172" r="1.6"/><circle cx="340" cy="172" r="1.6"/><circle cx="396" cy="172" r="1.6"/><circle cx="452" cy="172" r="1.6"/><circle cx="508" cy="172" r="1.6"/><circle cx="564" cy="172" r="1.6"/><circle cx="620" cy="172" r="1.6"/><circle cx="676" cy="172" r="1.6"/><circle cx="732" cy="172" r="1.6"/><circle cx="788" cy="172" r="1.6"/><circle cx="844" cy="172" r="1.6"/><circle cx="900" cy="172" r="1.6"/><circle cx="956" cy="172" r="1.6"/><circle cx="1012" cy="172" r="1.6"/><circle cx="1068" cy="172" r="1.6"/><circle cx="1124" cy="172" r="1.6"/><circle cx="1180" cy="172" r="1.6"/><circle cx="60" cy="228" r="1.6"/><circle cx="116" cy="228" r="1.6"/><circle cx="172" cy="228" r="1.6"/><circle cx="228" cy="228" r="1.6"/><circle cx="284" cy="228" r="1.6"/><circle cx="340" cy="228" r="1.6"/><circle cx="396" cy="228" r="1.6"/><circle cx="452" cy="228" r="1.6"/><circle cx="508" cy="228" r="1.6"/><circle cx="564" cy="228" r="1.6"/><circle cx="620" cy="228" r="1.6"/><circle cx="676" cy="228" r="1.6"/><circle cx="732" cy="228" r="1.6"/><circle cx="788" cy="228" r="1.6"/><circle cx="844" cy="228" r="1.6"/><circle cx="900" cy="228" r="1.6"/><circle cx="956" cy="228" r="1.6"/><circle cx="1012" cy="228" r="1.6"/><circle cx="1068" cy="228" r="1.6"/><circle cx="1124" cy="228" r="1.6"/><circle cx="1180" cy="228" r="1.6"/><circle cx="60" cy="284" r="1.6"/><circle cx="116" cy="284" r="1.6"/><circle cx="172" cy="284" r="1.6"/><circle cx="228" cy="284" r="1.6"/><circle cx="284" cy="284" r="1.6"/><circle cx="340" cy="284" r="1.6"/><circle cx="396" cy="284" r="1.6"/><circle cx="452" cy="284" r="1.6"/><circle cx="508" cy="284" r="1.6"/><circle cx="564" cy="284" r="1.6"/><circle cx="620" cy="284" r="1.6"/><circle cx="676" cy="284" r="1.6"/><circle cx="732" cy="284" r="1.6"/><circle cx="788" cy="284" r="1.6"/><circle cx="844" cy="284" r="1.6"/><circle cx="900" cy="284" r="1.6"/><circle cx="956" cy="284" r="1.6"/><circle cx="1012" cy="284" r="1.6"/><circle cx="1068" cy="284" r="1.6"/><circle cx="1124" cy="284" r="1.6"/><circle cx="1180" cy="284" r="1.6"/><circle cx="60" cy="340" r="1.6"/><circle cx="116" cy="340" r="1.6"/><circle cx="172" cy="340" r="1.6"/><circle cx="228" cy="340" r="1.6"/><circle cx="284" cy="340" r="1.6"/><circle cx="340" cy="340" r="1.6"/><circle cx="396" cy="340" r="1.6"/><circle cx="452" cy="340" r="1.6"/><circle cx="508" cy="340" r="1.6"/><circle cx="564" cy="340" r="1.6"/><circle cx="620" cy="340" r="1.6"/><circle cx="676" cy="340" r="1.6"/><circle cx="732" cy="340" r="1.6"/><circle cx="788" cy="340" r="1.6"/><circle cx="844" cy="340" r="1.6"/><circle cx="900" cy="340" r="1.6"/><circle cx="956" cy="340" r="1.6"/><circle cx="1012" cy="340" r="1.6"/><circle cx="1068" cy="340" r="1.6"/><circle cx="1124" cy="340" r="1.6"/><circle cx="1180" cy="340" r="1.6"/><circle cx="60" cy="396" r="1.6"/><circle cx="116" cy="396" r="1.6"/><circle cx="172" cy="396" r="1.6"/><circle cx="228" cy="396" r="1.6"/><circle cx="284" cy="396" r="1.6"/><circle cx="340" cy="396" r="1.6"/><circle cx="396" cy="396" r="1.6"/><circle cx="452" cy="396" r="1.6"/><circle cx="508" cy="396" r="1.6"/><circle cx="564" cy="396" r="1.6"/><circle cx="620" cy="396" r="1.6"/><circle cx="676" cy="396" r="1.6"/><circle cx="732" cy="396" r="1.6"/><circle cx="788" cy="396" r="1.6"/><circle cx="844" cy="396" r="1.6"/><circle cx="900" cy="396" r="1.6"/><circle cx="956" cy="396" r="1.6"/><circle cx="1012" cy="396" r="1.6"/><circle cx="1068" cy="396" r="1.6"/><circle cx="1124" cy="396" r="1.6"/><circle cx="1180" cy="396" r="1.6"/><circle cx="60" cy="452" r="1.6"/><circle cx="116" cy="452" r="1.6"/><circle cx="172" cy="452" r="1.6"/><circle cx="228" cy="452" r="1.6"/><circle cx="284" cy="452" r="1.6"/><circle cx="340" cy="452" r="1.6"/><circle cx="396" cy="452" r="1.6"/><circle cx="452" cy="452" r="1.6"/><circle cx="508" cy="452" r="1.6"/><circle cx="564" cy="452" r="1.6"/><circle cx="620" cy="452" r="1.6"/><circle cx="676" cy="452" r="1.6"/><circle cx="732" cy="452" r="1.6"/><circle cx="788" cy="452" r="1.6"/><circle cx="844" cy="452" r="1.6"/><circle cx="900" cy="452" r="1.6"/><circle cx="956" cy="452" r="1.6"/><circle cx="1012" cy="452" r="1.6"/><circle cx="1068" cy="452" r="1.6"/><circle cx="1124" cy="452" r="1.6"/><circle cx="1180" cy="452" r="1.6"/><circle cx="60" cy="508" r="1.6"/><circle cx="116" cy="508" r="1.6"/><circle cx="172" cy="508" r="1.6"/><circle cx="228" cy="508" r="1.6"/><circle cx="284" cy="508" r="1.6"/><circle cx="340" cy="508" r="1.6"/><circle cx="396" cy="508" r="1.6"/><circle cx="452" cy="508" r="1.6"/><circle cx="508" cy="508" r="1.6"/><circle cx="564" cy="508" r="1.6"/><circle cx="620" cy="508" r="1.6"/><circle cx="676" cy="508" r="1.6"/><circle cx="732" cy="508" r="1.6"/><circle cx="788" cy="508" r="1.6"/><circle cx="844" cy="508" r="1.6"/><circle cx="900" cy="508" r="1.6"/><circle cx="956" cy="508" r="1.6"/><circle cx="1012" cy="508" r="1.6"/><circle cx="1068" cy="508" r="1.6"/><circle cx="1124" cy="508" r="1.6"/><circle cx="1180" cy="508" r="1.6"/><circle cx="60" cy="564" r="1.6"/><circle cx="116" cy="564" r="1.6"/><circle cx="172" cy="564" r="1.6"/><circle cx="228" cy="564" r="1.6"/><circle cx="284" cy="564" r="1.6"/><circle cx="340" cy="564" r="1.6"/><circle cx="396" cy="564" r="1.6"/><circle cx="452" cy="564" r="1.6"/><circle cx="508" cy="564" r="1.6"/><circle cx="564" cy="564" r="1.6"/><circle cx="620" cy="564" r="1.6"/><circle cx="676" cy="564" r="1.6"/><circle cx="732" cy="564" r="1.6"/><circle cx="788" cy="564" r="1.6"/><circle cx="844" cy="564" r="1.6"/><circle cx="900" cy="564" r="1.6"/><circle cx="956" cy="564" r="1.6"/><circle cx="1012" cy="564" r="1.6"/><circle cx="1068" cy="564" r="1.6"/><circle cx="1124" cy="564" r="1.6"/><circle cx="1180" cy="564" r="1.6"/><circle cx="60" cy="620" r="1.6"/><circle cx="116" cy="620" r="1.6"/><circle cx="172" cy="620" r="1.6"/><circle cx="228" cy="620" r="1.6"/><circle cx="284" cy="620" r="1.6"/><circle cx="340" cy="620" r="1.6"/><circle cx="396" cy="620" r="1.6"/><circle cx="452" cy="620" r="1.6"/><circle cx="508" cy="620" r="1.6"/><circle cx="564" cy="620" r="1.6"/><circle cx="620" cy="620" r="1.6"/><circle cx="676" cy="620" r="1.6"/><circle cx="732" cy="620" r="1.6"/><circle cx="788" cy="620" r="1.6"/><circle cx="844" cy="620" r="1.6"/><circle cx="900" cy="620" r="1.6"/><circle cx="956" cy="620" r="1.6"/><circle cx="1012" cy="620" r="1.6"/><circle cx="1068" cy="620" r="1.6"/><circle cx="1124" cy="620" r="1.6"/><circle cx="1180" cy="620" r="1.6"/><circle cx="60" cy="676" r="1.6"/><circle cx="116" cy="676" r="1.6"/><circle cx="172" cy="676" r="1.6"/><circle cx="228" cy="676" r="1.6"/><circle cx="284" cy="676" r="1.6"/><circle cx="340" cy="676" r="1.6"/><circle cx="396" cy="676" r="1.6"/><circle cx="452" cy="676" r="1.6"/><circle cx="508" cy="676" r="1.6"/><circle cx="564" cy="676" r="1.6"/><circle cx="620" cy="676" r="1.6"/><circle cx="676" cy="676" r="1.6"/><circle cx="732" cy="676" r="1.6"/><circle cx="788" cy="676" r="1.6"/><circle cx="844" cy="676" r="1.6"/><circle cx="900" cy="676" r="1.6"/><circle cx="956" cy="676" r="1.6"/><circle cx="1012" cy="676" r="1.6"/><circle cx="1068" cy="676" r="1.6"/><circle cx="1124" cy="676" r="1.6"/><circle cx="1180" cy="676" r="1.6"/><circle cx="60" cy="732" r="1.6"/><circle cx="116" cy="732" r="1.6"/><circle cx="172" cy="732" r="1.6"/><circle cx="228" cy="732" r="1.6"/><circle cx="284" cy="732" r="1.6"/><circle cx="340" cy="732" r="1.6"/><circle cx="396" cy="732" r="1.6"/><circle cx="452" cy="732" r="1.6"/><circle cx="508" cy="732" r="1.6"/><circle cx="564" cy="732" r="1.6"/><circle cx="620" cy="732" r="1.6"/><circle cx="676" cy="732" r="1.6"/><circle cx="732" cy="732" r="1.6"/><circle cx="788" cy="732" r="1.6"/><circle cx="844" cy="732" r="1.6"/><circle cx="900" cy="732" r="1.6"/><circle cx="956" cy="732" r="1.6"/><circle cx="1012" cy="732" r="1.6"/><circle cx="1068" cy="732" r="1.6"/><circle cx="1124" cy="732" r="1.6"/><circle cx="1180" cy="732" r="1.6"/></g><circle cx="692" cy="488" r="283" fill="url(#ga)"/><circle cx="523" cy="275" r="224" fill="url(#gb)"/><path d="M-50 238 C 300 93, 600 383, 1250 166" fill="none" stroke="#7dd3fc" stroke-width="2.5" opacity="0.25"/><path d="M-50 501 C 300 430, 600 572, 1250 466" fill="none" stroke="#7dd3fc" stroke-width="1.9" opacity="0.19"/><path d="M-50 513 C 300 434, 600 592, 1250 474" fill="none" stroke="#7dd3fc" stroke-width="1.3" opacity="0.13"/><rect x="905" y="421" width="86" height="86" rx="17" fill="#ffffff" opacity="0.08" transform="rotate(-18 948.0 464.0)"/><rect x="966" y="429" width="64" height="64" rx="12" fill="#ffffff" opacity="0.09" transform="rotate(-17 998.0 461.0)"/><rect x="583" y="438" width="106" height="106" rx="21" fill="#ffffff" opacity="0.08" transform="rotate(1 636.0 491.0)"/><rect x="167" y="411" width="82" height="82" rx="16" fill="#ffffff" opacity="0.10" transform="rotate(-8 208.0 452.0)"/><g transform="translate(515 295)"><rect width="170" height="170" rx="36" fill="#ffffff" opacity="0.08"/><rect width="170" height="170" rx="36" fill="none" stroke="#ffffff" stroke-opacity="0.25" stroke-width="1.5"/><g transform="translate(53 53)"><path d="M12 14h40a6 6 0 0 1 6 6v18a6 6 0 0 1-6 6H30l-12 10V44h-6a6 6 0 0 1-6-6V20a6 6 0 0 1 6-6z" fill="none" stroke="#ffffff" stroke-opacity="0.9" stroke-width="3.5" stroke-linecap="round" stroke-linejoin="round"/></g></g></svg>